OS.mot
version=1
datacolumns 20
datarows 62
range 0.000000 0.610000
inDegrees=yes
endheader
time	pelvis_tilt	pelvis_list	pelvis_rotation	hip_flexion_r	hip_adduction_r	hip_rotation_r	knee_angle_r	ankle_angle_r	hip_flexion_l	hip_adduction_l	hip_rotation_l	knee_angle_l	ankle_angle_l	pelvis_tx	pelvis_ty	pelvis_tz	lumbar_bending	lumbar_rotation	lumbar_extension
0.000000	13.724145	-2.897747	178.400060	6.349505	-3.328164	-0.877545	-0.513130	2.750234	6.143125	4.068829	-0.740938	-2.124655	2.864648	2.427930	0.956072	0.068718	-4.404427	-2.253092	7.413733
0.010000	14.167943	-2.962232	178.179424	6.754597	-3.386052	-1.859509	-0.471770	2.211125	6.505854	4.143814	-0.866620	-2.195049	1.753584	2.426188	0.955766	0.068445	-4.258651	-2.418839	7.610167
0.020000	14.272316	-2.777328	177.952508	6.607056	-3.144636	-2.277080	-0.237457	2.142509	6.413223	3.880583	-1.069989	-2.260708	1.817784	2.423768	0.955457	0.067266	-4.139921	-2.437609	7.857254
0.030000	14.310906	-2.659229	177.951762	6.523211	-2.980918	-2.259592	-0.155805	2.313232	6.413556	3.706882	-1.032417	-2.352078	2.217687	2.422777	0.955356	0.066499	-4.189415	-2.447338	7.885271
0.040000	14.404714	-2.534882	177.970849	6.482010	-2.797557	-2.268469	-0.081651	2.516255	6.489660	3.516867	-0.938269	-2.501272	2.668646	2.421552	0.955215	0.065536	-4.232054	-2.371093	7.980262
0.050000	14.562648	-2.421508	178.002661	6.504224	-2.612804	-2.319878	-0.028464	2.735858	6.663536	3.332646	-0.787742	-2.726927	3.134747	2.420107	0.955018	0.064406	-4.269200	-2.212554	8.130434
0.060000	14.771202	-2.334379	178.034405	6.587768	-2.444589	-2.399314	-0.009108	2.978992	6.932569	3.174516	-0.598135	-3.047193	3.619139	2.418485	0.954750	0.063153	-4.303203	-1.987306	8.321421
0.070000	14.993431	-2.285408	178.051016	6.703169	-2.309820	-2.471669	-0.033030	3.268833	7.265448	3.059092	-0.397431	-3.476685	4.148946	2.416743	0.954405	0.061826	-4.340233	-1.717522	8.541344
0.080000	15.179112	-2.281372	178.040895	6.802409	-2.221576	-2.502532	-0.104712	3.625828	7.612159	2.996648	-0.211496	-4.023802	4.749101	2.414931	0.953988	0.060465	-4.387248	-1.423275	8.782453
0.090000	15.286976	-2.322807	177.999429	6.842784	-2.185525	-2.478369	-0.224022	4.051537	7.929140	2.988370	-0.052466	-4.690842	5.426253	2.413086	0.953517	0.059096	-4.445999	-1.117630	9.041185
0.100000	15.305277	-2.404947	177.930703	6.810247	-2.198892	-2.416457	-0.386821	4.518704	8.204773	3.026533	0.090216	-5.477462	6.162767	2.411227	0.953026	0.057721	-4.511678	-0.806643	9.317884
0.110000	15.259832	-2.520303	177.848835	6.729394	-2.252434	-2.362470	-0.585360	4.969112	8.472011	3.098130	0.247896	-6.385502	6.914732	2.409354	0.952559	0.056321	-4.576223	-0.490907	9.615457
0.120000	15.205619	-2.662080	177.776173	6.655302	-2.334761	-2.375683	-0.809165	5.326964	8.801116	3.190487	0.455171	-7.421903	7.619414	2.407461	0.952157	0.054864	-4.632497	-0.168267	9.935958
0.130000	15.200222	-2.827103	177.736347	6.645128	-2.437583	-2.506335	-1.046419	5.526760	9.268631	3.296970	0.728487	-8.596952	8.215428	2.405535	0.951860	0.053321	-4.677192	0.163441	10.277424
0.140000	15.274216	-3.016710	177.745148	6.726497	-2.559277	-2.777292	-1.286009	5.539111	9.920376	3.420049	1.055802	-9.919316	8.664167	2.403565	0.951690	0.051670	-4.710087	0.505544	10.633719
0.150000	15.421152	-3.235275	177.804006	6.887212	-2.704787	-3.178986	-1.519148	5.379074	10.756543	3.569255	1.402441	-11.392653	8.959694	2.401547	0.951660	0.049914	-4.730068	0.857998	10.996834
0.160000	15.606246	-3.487930	177.898895	7.084902	-2.883101	-3.674166	-1.739421	5.099863	11.740048	3.755936	1.721549	-13.016101	9.127474	2.399483	0.951769	0.048078	-4.732111	1.217099	11.359119
0.170000	15.784957	-3.779135	178.005606	7.267697	-3.104254	-4.210193	-1.942670	4.775152	12.818811	3.988324	1.960573	-14.787260	9.210224	2.397382	0.952009	0.046204	-4.707535	1.573495	11.713976
0.180000	15.927383	-4.111367	178.100041	7.401616	-3.375597	-4.739130	-2.127447	4.468592	13.955756	4.267957	2.070768	-16.704937	9.239847	2.395254	0.952367	0.044338	-4.648685	1.914882	12.055480
0.190000	16.031425	-4.483144	178.168333	7.484776	-3.698272	-5.233710	-2.294444	4.209280	15.145040	4.588302	2.019428	-18.769115	9.217543	2.393109	0.952822	0.042514	-4.556124	2.232459	12.377359
0.200000	16.113164	-4.886900	178.210207	7.535487	-4.064939	-5.688689	-2.444220	3.992253	16.400239	4.935321	1.797564	-20.977301	9.121538	2.390956	0.953339	0.040751	-4.440799	2.525926	12.672080
0.210000	16.190110	-5.308206	178.234746	7.572172	-4.459231	-6.113858	-2.574913	3.796240	17.732645	5.289241	1.420656	-23.319239	8.929368	2.388805	0.953871	0.039058	-4.318545	2.803855	12.931131
0.220000	16.274295	-5.727901	178.253792	7.604483	-4.858843	-6.527215	-2.681685	3.602903	19.141394	5.628454	0.921345	-25.773555	8.633048	2.386658	0.954358	0.037444	-4.202476	3.078982	13.146017
0.230000	16.369627	-6.125512	178.275896	7.630587	-5.240802	-6.945432	-2.758460	3.412775	20.611781	5.933546	0.337241	-28.308528	8.247169	2.384504	0.954745	0.035931	-4.095686	3.360215	13.309614
0.240000	16.469462	-6.481754	178.303240	7.636524	-5.585017	-7.371449	-2.801406	3.255703	22.116682	6.189046	-0.299116	-30.885856	7.814482	2.382323	0.954987	0.034554	-3.985886	3.644817	13.418270
0.250000	16.562931	-6.781096	178.335166	7.605163	-5.876228	-7.791801	-2.811565	3.182143	23.627454	6.384610	-0.963933	-33.463268	7.393548	2.380093	0.955070	0.033348	-3.848456	3.914618	13.473743
0.260000	16.646219	-7.015025	178.374144	7.529346	-6.105638	-8.185847	-2.794958	3.236926	25.127096	6.516360	-1.638821	-35.993231	7.029822	2.377785	0.955006	0.032329	-3.658146	4.138737	13.483326
0.270000	16.724520	-7.184271	178.426046	7.414549	-6.271687	-8.531911	-2.761963	3.443429	26.609673	6.586848	-2.303187	-38.419887	6.742459	2.375369	0.954838	0.031472	-3.400344	4.281368	13.457523
0.280000	16.801381	-7.298411	178.495204	7.267768	-6.379583	-8.805488	-2.726160	3.803226	28.064849	6.604204	-2.928740	-40.677697	6.533503	2.372820	0.954619	0.030717	-3.074755	4.310465	13.405851
0.290000	16.871230	-7.372506	178.582847	7.088414	-6.439541	-8.980695	-2.701346	4.293804	29.468194	6.581981	-3.483756	-42.694884	6.398075	2.370123	0.954404	0.029982	-2.690796	4.205199	13.332510
0.300000	16.927057	-7.422070	178.691436	6.874271	-6.463799	-9.038788	-2.698064	4.866889	30.792147	6.538073	-3.946766	-44.403546	6.328056	2.367272	0.954231	0.029193	-2.258994	3.960531	13.234124
0.310000	16.969823	-7.459604	178.826291	6.630643	-6.463886	-8.974492	-2.720980	5.458118	32.021798	6.490843	-4.317223	-45.752489	6.311980	2.364264	0.954121	0.028298	-1.785351	3.586043	13.101215
0.320000	17.008608	-7.494707	178.990442	6.371377	-6.449827	-8.797638	-2.766537	6.000402	33.159842	6.454406	-4.615300	-46.715354	6.330779	2.361103	0.954068	0.027277	-1.273207	3.101012	12.923396
0.330000	17.058359	-7.536320	179.179814	6.116846	-6.431026	-8.536251	-2.821014	6.431355	34.224993	6.436529	-4.875075	-47.290691	6.351186	2.357802	0.954051	0.026137	-0.730241	2.530133	12.695943
0.340000	17.138489	-7.594920	179.383149	5.891548	-6.417858	-8.237691	-2.861656	6.702218	35.247182	6.440336	-5.135482	-47.495558	6.323962	2.354365	0.954035	0.024907	-0.172481	1.900379	12.424183
0.350000	17.265063	-7.682405	179.583182	5.715411	-6.422484	-7.958535	-2.862851	6.792747	36.254190	6.466823	-5.427822	-47.356892	6.194941	2.350792	0.953973	0.023629	0.378829	1.239148	12.122947
0.360000	17.436710	-7.807471	179.759138	5.588667	-6.456086	-7.745679	-2.803786	6.718967	37.253099	6.515038	-5.761146	-46.905258	5.925868	2.347081	0.953816	0.022357	0.902876	0.573978	11.811092
0.370000	17.631420	-7.968651	179.892974	5.487095	-6.522491	-7.621484	-2.672408	6.522829	38.225745	6.580326	-6.117794	-46.172340	5.508724	2.343237	0.953521	0.021156	1.383912	-0.068990	11.505452
0.380000	17.818992	-8.150970	179.975387	5.373725	-6.613196	-7.582244	-2.464972	6.253164	39.142163	6.652819	-6.463669	-45.190271	4.967527	2.339262	0.953055	0.020083	1.815804	-0.669616	11.218009
0.390000	17.968841	-8.330253	180.006592	5.207258	-6.709755	-7.608473	-2.183500	5.952645	39.969198	6.719646	-6.760318	-43.990041	4.354193	2.335155	0.952408	0.019177	2.204143	-1.216172	10.956047
0.400000	18.047994	-8.483849	179.992303	4.942490	-6.793917	-7.676534	-1.834320	5.651963	40.668403	6.771637	-6.975700	-42.597786	3.736263	2.330922	0.951594	0.018456	2.563756	-1.701238	10.725461
0.410000	18.025314	-8.599024	179.940169	4.538621	-6.856112	-7.764456	-1.429863	5.373946	41.201135	6.808275	-7.096377	-41.031847	3.175992	2.326567	0.950646	0.017917	2.914780	-2.117499	10.533666
0.420000	17.883337	-8.672102	179.860564	3.974412	-6.894077	-7.853307	-0.991855	5.149424	41.543179	6.836171	-7.131555	-39.304201	2.712892	2.322086	0.949602	0.017545	3.277507	-2.458775	10.385820
0.430000	17.624349	-8.703705	179.768257	3.254997	-6.907187	-7.925337	-0.550682	5.020757	41.693426	6.865128	-7.107419	-37.423856	2.355092	2.317467	0.948493	0.017315	3.664883	-2.722013	10.278735
0.440000	17.266026	-8.697844	179.680569	2.405095	-6.895628	-7.960277	-0.137694	5.019992	41.669663	6.907119	-7.058290	-35.397915	2.079640	2.312691	0.947330	0.017196	4.077748	-2.907462	10.199218
0.450000	16.834132	-8.662814	179.614600	1.456750	-6.862914	-7.936817	0.225694	5.151041	41.499745	6.977186	-7.014403	-33.231921	1.847552	2.307733	0.946116	0.017154	4.506363	-3.018704	10.126153
0.460000	16.360627	-8.608639	179.586722	0.442938	-6.815102	-7.842605	0.535316	5.391885	41.219277	7.091435	-6.992877	-30.934061	1.628078	2.302559	0.944838	0.017166	4.935810	-3.063276	10.034916
0.470000	15.883743	-8.542407	179.611983	-0.602989	-6.756178	-7.685130	0.804433	5.702002	40.873378	7.260941	-6.998949	-28.522610	1.413054	2.297125	0.943479	0.017214	5.351452	-3.052081	9.902179
0.480000	15.440694	-8.465893	179.700448	-1.650862	-6.684397	-7.493813	1.056415	6.034982	40.511596	7.485828	-7.027331	-26.031735	1.215340	2.291392	0.942012	0.017288	5.741828	-2.995968	9.710175
0.490000	15.055227	-8.377013	179.851337	-2.680554	-6.593335	-7.311024	1.313186	6.360562	40.176032	7.753516	-7.056755	-23.511897	1.060209	2.285345	0.940410	0.017380	6.098482	-2.902921	9.451366
0.500000	14.733963	-8.272670	180.051091	-3.682067	-6.476087	-7.178117	1.586848	6.676557	39.895204	8.042339	-7.052313	-21.023842	0.972238	2.279001	0.938656	0.017485	6.414389	-2.778533	9.131826
0.510000	14.474448	-8.150241	180.278950	-4.647936	-6.327941	-7.124022	1.878515	6.995109	39.687202	8.328737	-6.982333	-18.627920	0.957940	2.272396	0.936752	0.017605	6.682842	-2.627127	8.770793
0.520000	14.272114	-8.008957	180.513535	-5.568856	-6.147818	-7.159364	2.181210	7.319758	39.561249	8.593935	-6.830579	-16.373134	0.997537	2.265566	0.934724	0.017747	6.897821	-2.453588	8.396059
0.530000	14.119252	-7.852941	180.735406	-6.437676	-5.940910	-7.274369	2.482544	7.639510	39.512980	8.828105	-6.590284	-14.291794	1.057596	2.258537	0.932628	0.017918	7.055928	-2.267551	8.037466
0.540000	14.000339	-7.693070	180.928027	-7.256496	-5.720331	-7.439702	2.765448	7.939181	39.519937	9.031540	-6.252440	-12.402860	1.113058	2.251319	0.930529	0.018123	7.159066	-2.087229	7.721646
0.550000	13.893637	-7.544101	181.078613	-8.035561	-5.504458	-7.614448	3.007754	8.204725	39.547485	9.211226	-5.810290	-10.720838	1.155910	2.243912	0.928497	0.018364	7.216200	-1.938144	7.469118
0.560000	13.780138	-7.419223	181.178001	-8.783672	-5.311356	-7.760088	3.183981	8.418696	39.563073	9.374205	-5.277547	-9.262651	1.186538	2.236301	0.926589	0.018645	7.242875	-1.845650	7.293725
0.570000	13.649069	-7.327585	181.220397	-9.503156	-5.155633	-7.850968	3.270385	8.561927	39.544270	9.524058	-4.694525	-8.047935	1.205310	2.228466	0.924849	0.018970	7.257954	-1.826844	7.202580
0.580000	13.499199	-7.275866	181.204497	-10.189921	-5.049747	-7.878966	3.249974	8.624567	39.480050	9.663437	-4.116829	-7.095330	1.214262	2.220388	0.923303	0.019339	7.277739	-1.887156	7.193131
0.590000	13.339698	-7.270168	181.134808	-10.832492	-5.005978	-7.854306	3.113842	8.609528	39.371641	9.797992	-3.601466	-6.418606	1.219662	2.212050	0.921969	0.019747	7.311033	-2.021948	7.251809
0.600000	13.187574	-7.314874	181.021778	-11.412431	-5.034669	-7.799821	2.858171	8.521989	39.230996	9.936418	-3.196415	-6.023800	1.228707	2.203437	0.920856	0.020185	7.359980	-2.222826	7.360640
0.610000	13.065299	-7.408916	180.880230	-11.904083	-5.139916	-7.739503	2.479301	8.359113	39.079843	10.086198	-2.934593	-5.907337	1.247693	2.194535	0.919977	0.020644	7.424388	-2.485336	7.504890
